<?xml version="1.0" encoding="UTF-8" standalone="no"?>
<svg
   xmlns:dc="http://purl.org/dc/elements/1.1/"
   xmlns:cc="http://creativecommons.org/ns#"
   xmlns:rdf="http://www.w3.org/1999/02/22-rdf-syntax-ns#"
   xmlns:svg="http://www.w3.org/2000/svg"
   xmlns="http://www.w3.org/2000/svg"
   xmlns:sodipodi="http://sodipodi.sourceforge.net/DTD/sodipodi-0.dtd"
   xmlns:inkscape="http://www.inkscape.org/namespaces/inkscape"
   inkscape:version="1.0 (4035a4fb49, 2020-05-01)"
   sodipodi:docname="problema.svg"
   viewBox="0 0 541.33331 212"
   height="212"
   width="541.33331"
   xml:space="preserve"
   id="svg2"
   version="1.1"><metadata
     id="metadata8"><rdf:RDF><cc:Work
         rdf:about=""><dc:format>image/svg+xml</dc:format><dc:type
           rdf:resource="http://purl.org/dc/dcmitype/StillImage" /><dc:title></dc:title></cc:Work></rdf:RDF></metadata><defs
     id="defs6" /><sodipodi:namedview
     inkscape:current-layer="g10"
     inkscape:window-maximized="0"
     inkscape:window-y="0"
     inkscape:window-x="0"
     inkscape:cy="106"
     inkscape:cx="269.99999"
     inkscape:zoom="3.0000001"
     showgrid="false"
     id="namedview4"
     inkscape:window-height="893"
     inkscape:window-width="1539"
     inkscape:pageshadow="2"
     inkscape:pageopacity="0"
     guidetolerance="10"
     gridtolerance="10"
     objecttolerance="10"
     borderopacity="1"
     bordercolor="#666666"
     pagecolor="#ffffff" /><g
     transform="matrix(1.3333333,0,0,-1.3333333,0,212)"
     inkscape:label="ink_ext_XXXXXX"
     inkscape:groupmode="layer"
     id="g10"><g
       transform="scale(0.1)"
       id="g12"><path
         id="path14"
         style="fill:none;stroke:#000000;stroke-width:5.67111;stroke-linecap:butt;stroke-linejoin:miter;stroke-miterlimit:4;stroke-dasharray:none;stroke-opacity:1"
         d="m 618.398,175.512 h 1950.23 v 1411.64 H 618.398 Z" /><path
         id="path16"
         style="fill:none;stroke:#000000;stroke-width:5.66138;stroke-linecap:butt;stroke-linejoin:miter;stroke-miterlimit:4;stroke-dasharray:none;stroke-opacity:1"
         d="m 2568.63,175.512 h 873.09 v 1411.68 h -873.09 z" /><path
         id="path18"
         style="fill:#000000;fill-opacity:1;fill-rule:nonzero;stroke:none"
         d="m 633.09,1152.19 c 0,-7.85 -6.328,-14.18 -14.141,-14.18 -7.859,0 -14.179,6.33 -14.179,14.18 0,7.81 6.32,14.14 14.179,14.14 7.813,0 14.141,-6.33 14.141,-14.14 z" /><path
         id="path20"
         style="fill:none;stroke:#000000;stroke-width:5.66929;stroke-linecap:butt;stroke-linejoin:miter;stroke-miterlimit:4;stroke-dasharray:none;stroke-opacity:1"
         d="m 633.09,1152.19 c 0,-7.85 -6.328,-14.18 -14.141,-14.18 -7.859,0 -14.179,6.33 -14.179,14.18 0,7.81 6.32,14.14 14.179,14.14 7.813,0 14.141,-6.33 14.141,-14.14 z" /><g
         transform="scale(10)"
         id="g22"><text
           id="text26"
           style="font-style:italic;font-variant:normal;font-size:12px;font-family:'Times New Roman';-inkscape-font-specification:TimesNewRomanPS-ItalicMT;writing-mode:lr-tb;fill:#000000;fill-opacity:1;fill-rule:nonzero;stroke:none"
           transform="matrix(1,0,0,-1,62.0574,117.588)"><tspan
             id="tspan24"
             y="0"
             x="0">T</tspan></text><text
           id="text30"
           style="font-style:italic;font-variant:normal;font-size:7.8px;font-family:'Times New Roman';-inkscape-font-specification:TimesNewRomanPS-ItalicMT;writing-mode:lr-tb;fill:#000000;fill-opacity:1;fill-rule:nonzero;stroke:none"
           transform="matrix(1,0,0,-1,68.73709,115.188)"><tspan
             id="tspan28"
             y="0"
             x="0">1</tspan></text><text
           id="text34"
           style="font-style:italic;font-variant:normal;font-size:12px;font-family:'Times New Roman';-inkscape-font-specification:TimesNewRomanPS-ItalicMT;writing-mode:lr-tb;fill:#000000;fill-opacity:1;fill-rule:nonzero;stroke:none"
           transform="matrix(1,0,0,-1,256.53509,91.6052)"><tspan
             id="tspan32"
             y="0"
             x="0">T</tspan></text><text
           id="text38"
           style="font-style:italic;font-variant:normal;font-size:7.8px;font-family:'Times New Roman';-inkscape-font-specification:TimesNewRomanPS-ItalicMT;writing-mode:lr-tb;fill:#000000;fill-opacity:1;fill-rule:nonzero;stroke:none"
           transform="matrix(1,0,0,-1,263.21478,89.2052)"><tspan
             id="tspan36"
             y="0"
             x="0">i</tspan></text></g><path
         id="path40"
         style="fill:#000000;fill-opacity:1;fill-rule:nonzero;stroke:none"
         d="m 2583.36,878.441 c 0,-7.82 -6.37,-14.179 -14.18,-14.179 -7.81,0 -14.18,6.359 -14.18,14.179 0,7.809 6.37,14.18 14.18,14.18 7.81,0 14.18,-6.371 14.18,-14.18 z" /><path
         id="path42"
         style="fill:none;stroke:#000000;stroke-width:5.66929;stroke-linecap:butt;stroke-linejoin:miter;stroke-miterlimit:4;stroke-dasharray:none;stroke-opacity:1"
         d="m 2583.36,878.441 c 0,-7.82 -6.37,-14.179 -14.18,-14.179 -7.81,0 -14.18,6.359 -14.18,14.179 0,7.809 6.37,14.18 14.18,14.18 7.81,0 14.18,-6.371 14.18,-14.18 z" /><g
         transform="scale(10)"
         id="g44"><text
           id="text48"
           style="font-style:italic;font-variant:normal;font-size:12px;font-family:'Times New Roman';-inkscape-font-specification:TimesNewRomanPS-ItalicMT;writing-mode:lr-tb;fill:#000000;fill-opacity:1;fill-rule:nonzero;stroke:none"
           transform="matrix(1,0,0,-1,343.759,49.8797)"><tspan
             id="tspan46"
             y="0"
             x="0">T</tspan></text><text
           id="text52"
           style="font-style:italic;font-variant:normal;font-size:7.8px;font-family:'Times New Roman';-inkscape-font-specification:TimesNewRomanPS-ItalicMT;writing-mode:lr-tb;fill:#000000;fill-opacity:1;fill-rule:nonzero;stroke:none"
           transform="matrix(1,0,0,-1,350.43869,47.4797)"><tspan
             id="tspan50"
             y="0"
             x="0">s</tspan></text></g><path
         id="path54"
         style="fill:#000000;fill-opacity:1;fill-rule:nonzero;stroke:none"
         d="m 3454.14,475.27 c 0,-7.848 -6.33,-14.18 -14.14,-14.18 -7.85,0 -14.18,6.332 -14.18,14.18 0,7.82 6.33,14.14 14.18,14.14 7.81,0 14.14,-6.32 14.14,-14.14 z" /><path
         id="path56"
         style="fill:none;stroke:#000000;stroke-width:5.66929;stroke-linecap:butt;stroke-linejoin:miter;stroke-miterlimit:4;stroke-dasharray:none;stroke-opacity:1"
         d="m 3454.14,475.27 c 0,-7.848 -6.33,-14.18 -14.14,-14.18 -7.85,0 -14.18,6.332 -14.18,14.18 0,7.82 6.33,14.14 14.18,14.14 7.81,0 14.14,-6.32 14.14,-14.14 z" /><path
         id="path58"
         style="fill:none;stroke:#000000;stroke-width:7.49999;stroke-linecap:square;stroke-linejoin:miter;stroke-miterlimit:4;stroke-dasharray:none;stroke-opacity:1"
         d="M 655.898,136.641 H 2531.13" /><path
         id="path60"
         style="fill:#000000;fill-opacity:1;fill-rule:nonzero;stroke:none"
         d="m 670.352,127.578 -24.614,8.981 24.614,9.062 c -3.942,-5.312 -3.903,-12.652 0,-18.043 z" /><path
         id="path62"
         style="fill:none;stroke:#000000;stroke-width:2.25;stroke-linecap:butt;stroke-linejoin:miter;stroke-miterlimit:4;stroke-dasharray:none;stroke-opacity:1"
         d="m 670.352,127.578 -24.614,8.981 24.614,9.062 c -3.942,-5.312 -3.903,-12.652 0,-18.043 z" /><path
         id="path64"
         style="fill:#000000;fill-opacity:1;fill-rule:nonzero;stroke:none"
         d="m 2516.68,145.699 24.61,-9.019 -24.61,-9.059 c 3.95,5.348 3.95,12.649 0,18.078 z" /><path
         id="path66"
         style="fill:none;stroke:#000000;stroke-width:2.25;stroke-linecap:butt;stroke-linejoin:miter;stroke-miterlimit:4;stroke-dasharray:none;stroke-opacity:1"
         d="m 2516.68,145.699 24.61,-9.019 -24.61,-9.059 c 3.95,5.348 3.95,12.649 0,18.078 z" /><g
         transform="scale(10)"
         id="g68"><text
           id="text72"
           style="font-variant:normal;font-weight:normal;font-size:14px;font-family:'Times New Roman';-inkscape-font-specification:TimesNewRomanPSMT;writing-mode:lr-tb;fill:#000000;fill-opacity:1;fill-rule:nonzero;stroke:none"
           transform="matrix(1,0,0,-1,139.446,0.671094)"><tspan
             id="tspan70"
             sodipodi:role="line"
             y="0"
             x="0 7 14 17.5 28.392">69 mm</tspan></text></g><path
         id="path74"
         style="fill:none;stroke:#000000;stroke-width:7.49999;stroke-linecap:square;stroke-linejoin:miter;stroke-miterlimit:4;stroke-dasharray:none;stroke-opacity:1"
         d="M 3419.22,136.641 H 2621.13" /><path
         id="path76"
         style="fill:#000000;fill-opacity:1;fill-rule:nonzero;stroke:none"
         d="m 3404.77,145.699 24.61,-9.019 -24.61,-9.059 c 3.94,5.348 3.9,12.649 0,18.078 z" /><path
         id="path78"
         style="fill:none;stroke:#000000;stroke-width:2.25;stroke-linecap:butt;stroke-linejoin:miter;stroke-miterlimit:4;stroke-dasharray:none;stroke-opacity:1"
         d="m 3404.77,145.699 24.61,-9.019 -24.61,-9.059 c 3.94,5.348 3.9,12.649 0,18.078 z" /><path
         id="path80"
         style="fill:#000000;fill-opacity:1;fill-rule:nonzero;stroke:none"
         d="m 2635.59,127.578 -24.61,8.981 24.61,9.062 c -3.95,-5.312 -3.91,-12.652 0,-18.043 z" /><path
         id="path82"
         style="fill:none;stroke:#000000;stroke-width:2.25;stroke-linecap:butt;stroke-linejoin:miter;stroke-miterlimit:4;stroke-dasharray:none;stroke-opacity:1"
         d="m 2635.59,127.578 -24.61,8.981 24.61,9.07 c -3.95,-5.32 -3.91,-12.66 0,-18.051 z" /><g
         transform="scale(10)"
         id="g84"><text
           id="text88"
           style="font-variant:normal;font-weight:normal;font-size:14px;font-family:'Times New Roman';-inkscape-font-specification:TimesNewRomanPSMT;writing-mode:lr-tb;fill:#000000;fill-opacity:1;fill-rule:nonzero;stroke:none"
           transform="matrix(1,0,0,-1,282.129,0.657422)"><tspan
             id="tspan86"
             sodipodi:role="line"
             y="0"
             x="0 7 14 17.5 28.392">31 mm</tspan></text><text
           id="text92"
           style="font-variant:normal;font-weight:normal;font-size:30px;font-family:Verdana;-inkscape-font-specification:Verdana;writing-mode:lr-tb;fill:#000000;fill-opacity:1;fill-rule:nonzero;stroke:none"
           transform="matrix(1,0,0,-1,149.086,119.21342)"><tspan
             id="tspan90"
             y="0"
             x="0">A</tspan></text></g><path
         id="path94"
         style="fill:none;stroke:#000000;stroke-width:5.66929;stroke-linecap:butt;stroke-linejoin:miter;stroke-miterlimit:4;stroke-dasharray:none;stroke-opacity:1"
         d="m 1463.95,1161.83 h 259.18 v 269.301 h -259.18 z" /><g
         transform="scale(10)"
         id="g96"><text
           id="text100"
           style="font-variant:normal;font-weight:normal;font-size:30px;font-family:Verdana;-inkscape-font-specification:Verdana;writing-mode:lr-tb;fill:#000000;fill-opacity:1;fill-rule:nonzero;stroke:none"
           transform="matrix(1,0,0,-1,290.252,119.214)"><tspan
             id="tspan98"
             y="0"
             x="0">B</tspan></text></g><path
         id="path102"
         style="fill:none;stroke:#000000;stroke-width:5.66929;stroke-linecap:butt;stroke-linejoin:miter;stroke-miterlimit:4;stroke-dasharray:none;stroke-opacity:1"
         d="m 2875.59,1161.83 h 259.18 v 269.301 h -259.18 z" /><path
         id="path104"
         style="fill:none;stroke:#000000;stroke-width:18.7914;stroke-linecap:butt;stroke-linejoin:miter;stroke-miterlimit:4;stroke-dasharray:none;stroke-opacity:1"
         d="M 0,881.02 H 581.48" /><path
         id="path106"
         style="fill:#000000;fill-opacity:1;fill-rule:evenodd;stroke:none"
         d="m 380.629,964.371 225.82,-83.043 -225.82,-83.047 c 36.051,49.02 35.851,116.129 0,166.09 z" /><path
         id="path108"
         style="fill:none;stroke:#000000;stroke-width:12.9191;stroke-linecap:butt;stroke-linejoin:round;stroke-miterlimit:4;stroke-dasharray:none;stroke-opacity:1"
         d="M 380.621,964.371 606.449,881.328 380.621,798.281 c 36.059,49.02 35.859,116.129 0,166.09 z" /><g
         transform="scale(10)"
         id="g110"><text
           id="text114"
           style="font-style:italic;font-variant:normal;font-size:20px;font-family:'Times New Roman';-inkscape-font-specification:TimesNewRomanPS-ItalicMT;writing-mode:lr-tb;fill:#000000;fill-opacity:1;fill-rule:nonzero;stroke:none"
           transform="matrix(1,0,0,-1,12.4449,96.5473)"><tspan
             id="tspan112"
             sodipodi:role="line"
             y="0"
             x="0 10 14.28">q''</tspan></text></g><path
         id="path116"
         style="fill:none;stroke:#000000;stroke-width:18.7914;stroke-linecap:butt;stroke-linejoin:miter;stroke-miterlimit:4;stroke-dasharray:none;stroke-opacity:1"
         d="m 3442.42,881.02 h 581.53" /><path
         id="path118"
         style="fill:#000000;fill-opacity:1;fill-rule:evenodd;stroke:none"
         d="m 3823.05,964.371 225.86,-83.043 -225.86,-83.047 c 36.09,49.02 35.86,116.129 0,166.09 z" /><path
         id="path120"
         style="fill:none;stroke:#000000;stroke-width:12.9191;stroke-linecap:butt;stroke-linejoin:round;stroke-miterlimit:4;stroke-dasharray:none;stroke-opacity:1"
         d="m 3823.05,964.371 225.86,-83.043 -225.86,-83.047 c 36.09,49.02 35.86,116.129 0,166.09 z" /><g
         transform="scale(10)"
         id="g122"><text
           id="text126"
           style="font-style:italic;font-variant:normal;font-size:20px;font-family:'Times New Roman';-inkscape-font-specification:TimesNewRomanPS-ItalicMT;writing-mode:lr-tb;fill:#000000;fill-opacity:1;fill-rule:nonzero;stroke:none"
           transform="matrix(1,0,0,-1,344.556,100.954)"><tspan
             id="tspan124"
             sodipodi:role="line"
             y="0"
             x="0 10 15 20">h, T</tspan></text><text
           id="text130"
           style="font-style:italic;font-variant:normal;font-size:13px;font-family:'Times New Roman';-inkscape-font-specification:TimesNewRomanPS-ItalicMT;writing-mode:lr-tb;fill:#000000;fill-opacity:1;fill-rule:nonzero;stroke:none"
           transform="matrix(1,0,0,-1,375.6888,96.954)"><tspan
             id="tspan128"
             y="0"
             x="0">∞</tspan></text></g></g></g></svg>
